<svg width="12" height="18" viewBox="0 0 12 18" fill="none" xmlns="http://www.w3.org/2000/svg">
<path d="M5.43885 17.7545V0.20909H6.56286V17.7545H5.43885ZM9.22209 5.47273C9.13985 4.77822 8.8063 4.23906 8.22145 3.85526C7.63661 3.47145 6.91925 3.27955 6.06939 3.27955C5.44799 3.27955 4.90427 3.38007 4.43821 3.58111C3.97673 3.78215 3.61577 4.05858 3.35533 4.4104C3.09946 4.76223 2.97152 5.16203 2.97152 5.6098C2.97152 5.98447 3.06062 6.30659 3.23882 6.57617C3.42158 6.84118 3.65461 7.06278 3.9379 7.24098C4.22118 7.41461 4.51817 7.55853 4.82888 7.67276C5.13958 7.78242 5.42515 7.87152 5.68559 7.94006L7.11116 8.32386C7.47669 8.41982 7.88334 8.55232 8.33111 8.72138C8.78346 8.89044 9.21524 9.12118 9.62646 9.4136C10.0423 9.70146 10.3849 10.0716 10.6545 10.5239C10.9241 10.9762 11.0589 11.5314 11.0589 12.1893C11.0589 12.9478 10.8601 13.6332 10.4626 14.2455C10.0697 14.8577 9.49396 15.3443 8.73548 15.7053C7.98157 16.0663 7.06546 16.2467 5.98715 16.2467C4.98194 16.2467 4.11152 16.0845 3.37589 15.7601C2.64483 15.4357 2.06912 14.9834 1.64876 14.4031C1.23297 13.8228 0.997661 13.1489 0.942831 12.3813H2.69738C2.74307 12.9113 2.92126 13.3499 3.23196 13.6972C3.54723 14.0398 3.94475 14.2957 4.42451 14.4648C4.90884 14.6293 5.42972 14.7115 5.98715 14.7115C6.63597 14.7115 7.21853 14.6064 7.73484 14.3962C8.25115 14.1815 8.66009 13.8845 8.96165 13.5053C9.26321 13.1214 9.414 12.6737 9.414 12.1619C9.414 11.6959 9.28378 11.3166 9.02334 11.0242C8.7629 10.7318 8.42021 10.4942 7.99528 10.3114C7.57035 10.1287 7.11116 9.96875 6.61769 9.83168L4.89056 9.33821C3.79397 9.02294 2.92583 8.57288 2.28616 7.98803C1.64648 7.40318 1.32664 6.63786 1.32664 5.69205C1.32664 4.90616 1.5391 4.22079 1.96403 3.63594C2.39353 3.04652 2.96924 2.58961 3.69116 2.2652C4.41765 1.93622 5.22867 1.77173 6.12422 1.77173C7.02891 1.77173 7.83308 1.93394 8.53672 2.25835C9.24037 2.57818 9.7978 3.01682 10.209 3.57425C10.6248 4.13169 10.8441 4.76451 10.867 5.47273H9.22209Z" fill="#F1AE52"/>
</svg>
